<svg width="1460" height="162" fill="none" xmlns="http://www.w3.org/2000/svg"><path d="M68.005 0H8.69C3.306 0 0 3.308 0 8.695V153.21c0 5.387 3.306 8.695 8.69 8.695h59.315c13.412 0 24.085-3.781 31.736-11.247 7.651-7.467 11.523-18.147 11.523-31.568V42.816c0-13.422-3.872-24.102-11.523-31.569C92.091 3.781 81.417 0 68.005 0zm5.573 44.328v73.344c0 4.064-.756 6.994-2.172 8.412-1.417 1.417-4.345 2.174-8.407 2.174H37.686V33.742h25.219c4.061 0 6.99.756 8.406 2.174 1.511 1.418 2.267 4.348 2.267 8.412zM233.862 0h-78.584c-5.384 0-8.689 3.308-8.689 8.695V153.21c0 5.387 3.305 8.695 8.689 8.695h78.584c5.195 0 8.406-3.308 8.406-8.695v-16.351c0-5.388-3.211-8.696-8.406-8.696h-49.493V96.689h40.426c5.383 0 8.689-3.308 8.689-8.695V71.643c0-5.388-3.306-8.696-8.689-8.696h-40.426v-29.3h49.493c5.195 0 8.406-3.307 8.406-8.695V8.601c0-5.293-3.211-8.601-8.406-8.601zm146.402 0H357.69c-5.006 0-8.407 2.93-9.257 7.94L326.143 112 303.947 8.034C303.002 2.93 299.602 0 294.69 0h-22.668c-3.495 0-6.045 1.04-7.462 3.024-.944 1.324-1.889 3.592-.85 6.995l37.214 143.852c.945 5.104 4.439 8.034 9.54 8.034h31.452c4.723 0 8.123-2.835 9.256-7.75l37.309-144.23c.661-2.93.189-5.294-1.228-7.09C385.836.945 383.38 0 380.264 0z" fill="#484848"/><path d="M501.727 70.792c-10.862-4.442-23.424-7.278-37.403-8.412-16.434-1.418-16.434-7.372-16.434-9.357v-4.537c0-8.223 1.605-11.058 2.55-12.098.85-.945 3.494-2.552 10.673-2.552h9.351c7.083 0 9.823 1.513 10.767 2.363.945.85 2.456 3.308 2.456 10.113v1.418c0 5.387 3.306 8.695 8.689 8.695h20.402c5.384 0 8.689-3.308 8.689-8.695v-4.537c0-13.421-3.967-24.101-11.617-31.662C502.105 3.968 491.337.188 477.736.188h-23.99c-13.413 0-24.18 3.875-31.831 11.341-7.745 7.562-11.617 18.242-11.617 31.663v8.412c0 10.586 2.078 19.376 6.139 26.275 4.156 6.995 9.54 11.815 15.868 14.272a127.823 127.823 0 0 0 18.701 5.482c6.707 1.418 12.94 2.363 18.607 2.836 5.006.378 9.162 1.701 12.374 3.875 2.739 1.796 4.061 4.253 4.061 7.656v2.93c0 5.387-.944 9.262-2.645 10.869-1.227 1.229-4.061 2.552-10.578 2.552h-11.334c-7.084 0-9.823-1.513-10.768-2.363-1.606-1.512-2.456-5.009-2.456-9.924v-1.891c0-5.387-3.305-8.695-8.689-8.695h-20.402c-5.384 0-8.689 3.308-8.689 8.695v4.821c0 13.421 3.967 24.101 11.617 31.662 7.745 7.562 18.418 11.342 31.83 11.342h26.164c13.412 0 24.085-3.875 31.83-11.342 7.745-7.561 11.617-18.241 11.617-31.662v-8.129c0-10.207-2.078-18.808-6.139-25.519-4.061-7.088-9.256-11.909-15.679-14.555zM660.501 0h-20.213c-5.383 0-8.689 3.308-8.689 8.695v108.977c0 4.064-.756 6.994-2.172 8.412-1.417 1.417-4.345 2.174-8.407 2.174h-16.529c-3.872 0-6.706-.757-8.123-2.174-1.416-1.418-2.172-4.348-2.172-8.412V8.695c0-5.387-3.306-8.695-8.689-8.695h-20.402c-5.384 0-8.69 3.308-8.69 8.695V119.09c0 13.61 3.873 24.29 11.429 31.662s18.229 11.153 31.83 11.153h26.447c13.412 0 24.085-3.781 31.736-11.247 7.65-7.467 11.523-18.147 11.523-31.568V8.412c0-5.104-3.401-8.412-8.879-8.412zm112.68 0h-58.654c-5.384 0-8.69 3.308-8.69 8.695V153.21c0 5.387 3.306 8.695 8.69 8.695h20.401c5.384 0 8.69-3.308 8.69-8.695v-44.517h29.563c13.412 0 24.085-3.781 31.642-11.248 7.556-7.466 11.428-18.146 11.428-31.568V42.816c0-13.422-3.872-24.007-11.428-31.569C797.266 3.875 786.593 0 773.181 0zm5.29 44.328v20.226c0 3.97-.756 6.805-2.173 8.223-1.322 1.418-4.156 2.174-8.217 2.174h-24.558V33.837h24.558c4.061 0 6.895.756 8.217 2.173 1.417 1.23 2.173 4.16 2.173 8.318zM934.221 0h-78.583c-5.384 0-8.69 3.308-8.69 8.695V153.21c0 5.387 3.306 8.695 8.69 8.695h78.583c5.195 0 8.407-3.308 8.407-8.695v-16.351c0-5.388-3.212-8.696-8.407-8.696h-49.492V96.689h40.331c5.383 0 8.689-3.308 8.689-8.695V71.643c0-5.388-3.306-8.696-8.689-8.696h-40.331v-29.3h49.492c5.195 0 8.407-3.307 8.407-8.695V8.601c0-5.293-3.212-8.601-8.407-8.601zm130.439 99.809c13.6-6.9 20.5-19.66 20.5-37.995V43.099c0-13.42-3.97-24.101-11.62-31.662-7.75-7.561-18.42-11.342-31.83-11.342h-57.239c-5.384 0-8.69 3.308-8.69 8.695v144.515c0 5.387 3.306 8.695 8.69 8.695h20.399c5.39 0 8.69-3.308 8.69-8.695v-48.392h13.04l22.95 49.62c1.13 2.93 2.83 5.01 4.91 6.049 1.79.945 4.34 1.323 7.84 1.323h19.46c3.3 0 5.76-1.039 7.08-3.024 1.42-1.985 1.51-4.537.19-7.939l-24.37-51.133zm-17.19-55.48v18.713c0 3.686-.85 6.333-2.36 7.75-1.7 1.513-4.82 2.363-8.88 2.363h-22.57V33.742h22.57c4.16 0 7.18.757 8.88 2.363 1.51 1.513 2.36 4.254 2.36 8.223zM1151.27 0h-20.4c-5.38 0-8.69 3.308-8.69 8.695V153.21c0 5.387 3.31 8.695 8.69 8.695h20.4c5.39 0 8.69-3.308 8.69-8.695V8.695c-.09-5.387-3.4-8.695-8.69-8.695zm115.33 0h-26.92c-13.6 0-24.28 3.78-31.83 11.153-7.56 7.372-11.43 18.052-11.43 31.663v76.274c0 13.61 3.87 24.29 11.43 31.662 7.55 7.372 18.23 11.153 31.83 11.153h26.92c13.6 0 24.27-3.781 31.83-11.153 7.55-7.372 11.43-18.052 11.43-31.662V42.816c0-13.61-3.88-24.291-11.43-31.663C1290.87 3.78 1280.2 0 1266.6 0zm5.57 44.328v73.344c0 4.064-.76 6.994-2.17 8.412-1.42 1.417-4.35 2.174-8.41 2.174h-17.09c-4.07 0-6.9-.757-8.22-2.174-1.42-1.418-2.08-4.348-2.08-8.412V44.328c0-4.064.76-6.994 2.08-8.412 1.32-1.418 4.15-2.174 8.22-2.174h17.09c4.06 0 6.99.756 8.41 2.174 1.41 1.418 2.17 4.348 2.17 8.412zm186.35 106.614l-24.46-51.133c13.6-6.9 20.5-19.66 20.5-37.995V43.099c0-13.42-3.97-24.101-11.62-31.662-7.75-7.561-18.42-11.342-31.83-11.342h-57.24c-5.38 0-8.69 3.308-8.69 8.695v144.515c0 5.387 3.31 8.695 8.69 8.695h20.4c5.39 0 8.69-3.308 8.69-8.695v-48.392H1396l22.95 49.62c1.13 2.93 2.83 5.01 4.91 6.049 1.79.945 4.34 1.323 7.84 1.323h19.46c3.3 0 5.76-1.039 7.08-3.024 1.42-1.985 1.6-4.537.28-7.939zm-41.65-106.614v18.714c0 3.686-.85 6.333-2.36 7.75-1.7 1.513-4.82 2.363-8.88 2.363h-22.57V33.742h22.57c4.16 0 7.18.757 8.88 2.363 1.51 1.513 2.36 4.254 2.36 8.223z" fill="#FF8400"/></svg>